<mxfile host="app.diagrams.net" modified="2022-04-01T12:37:14.403Z" agent="5.0 (Windows)" etag="QdhGdr7PuL-XD-RYYUGw" version="17.2.4" type="github">
  <diagram id="PzFFgxeJQx3ioWYLc_Tk" name="Page-1">
    <mxGraphModel dx="1422" dy="780" grid="1" gridSize="10" guides="1" tooltips="1" connect="1" arrows="1" fold="1" page="1" pageScale="1" pageWidth="850" pageHeight="1100" math="0" shadow="0">
      <root>
        <mxCell id="0" />
        <mxCell id="1" parent="0" />
        <mxCell id="7xeBdaCDqStiyoFZEYQS-3" value="Mulai" style="ellipse;whiteSpace=wrap;html=1;" parent="1" vertex="1">
          <mxGeometry x="90" y="100" width="90" height="40" as="geometry" />
        </mxCell>
        <mxCell id="I62fT-xNweAdK-0oRvF5-1" value="tes" style="rounded=1;whiteSpace=wrap;html=1;" vertex="1" parent="1">
          <mxGeometry x="130" y="290" width="120" height="60" as="geometry" />
        </mxCell>
      </root>
    </mxGraphModel>
  </diagram>
</mxfile>
